<svg xmlns="http://www.w3.org/2000/svg" width="512" height="512" viewBox="0 0 512 512"><defs>
  <linearGradient id="night" x1="46" y1="25" x2="468" y2="491" gradientUnits="userSpaceOnUse"><stop stop-color="#26282d"/><stop offset="0.48" stop-color="#121419"/><stop offset="1" stop-color="#07080b"/></linearGradient>
  <radialGradient id="sheen" cx="0" cy="0" r="1" gradientTransform="translate(181 99) rotate(48) scale(386)"><stop stop-color="#ffffff" stop-opacity="0.07"/><stop offset="0.58" stop-color="#ffffff" stop-opacity="0"/></radialGradient>
  <filter id="grain" x="0" y="0" width="100%" height="100%"><feTurbulence type="fractalNoise" baseFrequency="0.62" numOctaves="2" seed="23" result="n"/><feColorMatrix in="n" type="saturate" values="0" result="m"/><feComponentTransfer in="m"><feFuncA type="table" tableValues="0 0.04"/></feComponentTransfer></filter></defs>
    <rect x="16" y="16" width="480" height="480" rx="78" fill="url(#night)"/><rect x="16" y="16" width="480" height="480" rx="78" fill="url(#sheen)"/><rect x="16" y="16" width="480" height="480" rx="78" filter="url(#grain)" opacity="0.46"/>
    <path d="M129 104H201V307C201 325 215 339 233 339H327L418 372L327 405H129V104Z" fill="#f3eee4"/>
    <path d="M190 121C240 91 313 99 350 139L424 202L352 233" fill="none" stroke="#f3eee4" stroke-width="21" stroke-linecap="round" stroke-linejoin="round"/>
    <path d="M351 177L424 202L352 211" fill="#101216"/>
    <circle cx="328" cy="159" r="36" fill="#ef3b31"/>
    <circle cx="337" cy="155" r="12" fill="#101216"/>
    <path d="M327 339L418 372L327 374" fill="#101216" opacity="0.38"/>
    <path d="M103 438H409" stroke="#f3eee4" stroke-width="6"/><circle cx="409" cy="438" r="8" fill="#ef3b31"/>
  </svg>