<svg xmlns="http://www.w3.org/2000/svg" width="512" height="512" viewBox="0 0 512 512"><defs>
  <linearGradient id="night" x1="46" y1="25" x2="468" y2="491" gradientUnits="userSpaceOnUse"><stop stop-color="#26282d"/><stop offset="0.48" stop-color="#121419"/><stop offset="1" stop-color="#07080b"/></linearGradient>
  <radialGradient id="sheen" cx="0" cy="0" r="1" gradientTransform="translate(181 99) rotate(48) scale(386)"><stop stop-color="#ffffff" stop-opacity="0.07"/><stop offset="0.58" stop-color="#ffffff" stop-opacity="0"/></radialGradient>
  <filter id="grain" x="0" y="0" width="100%" height="100%"><feTurbulence type="fractalNoise" baseFrequency="0.62" numOctaves="2" seed="23" result="n"/><feColorMatrix in="n" type="saturate" values="0" result="m"/><feComponentTransfer in="m"><feFuncA type="table" tableValues="0 0.04"/></feComponentTransfer></filter></defs>
    <rect x="16" y="16" width="480" height="480" rx="78" fill="url(#night)"/><rect x="16" y="16" width="480" height="480" rx="78" fill="url(#sheen)"/><rect x="16" y="16" width="480" height="480" rx="78" filter="url(#grain)" opacity="0.46"/>
    <path d="M119 417L151 309C124 271 119 227 134 184C158 116 224 78 296 91C340 99 373 126 392 163L456 199L397 235C374 249 366 270 358 298C342 353 296 391 237 399L221 417H119Z" fill="#f3eee4"/>
    <path d="M392 163L456 199L398 216" fill="#101216" opacity="0.28"/>
    <path d="M183 235V338C183 351 193 361 206 361H286" fill="none" stroke="#101216" stroke-width="31" stroke-linecap="square" stroke-linejoin="miter"/>
    <circle cx="325" cy="161" r="37" fill="#ef3b31"/>
    <circle cx="335" cy="156" r="13" fill="#101216"/>
    <path d="M100 438H412" stroke="#f3eee4" stroke-opacity="0.48" stroke-width="5"/>
  </svg>