<svg xmlns="http://www.w3.org/2000/svg" width="512" height="512" viewBox="0 0 512 512"><defs>
  <linearGradient id="night" x1="48" y1="24" x2="469" y2="491" gradientUnits="userSpaceOnUse"><stop stop-color="#292b30"/><stop offset="0.48" stop-color="#121419"/><stop offset="1" stop-color="#07080b"/></linearGradient>
  <radialGradient id="sheen" cx="0" cy="0" r="1" gradientTransform="translate(194 101) rotate(51) scale(390)"><stop stop-color="#ffffff" stop-opacity="0.07"/><stop offset="0.62" stop-color="#ffffff" stop-opacity="0"/></radialGradient>
  <filter id="grain" x="0" y="0" width="100%" height="100%"><feTurbulence type="fractalNoise" baseFrequency="0.65" numOctaves="2" seed="29" result="n"/><feColorMatrix in="n" type="saturate" values="0" result="m"/><feComponentTransfer in="m"><feFuncA type="table" tableValues="0 0.038"/></feComponentTransfer></filter></defs>
    <rect x="16" y="16" width="480" height="480" rx="78" fill="url(#night)"/><rect x="16" y="16" width="480" height="480" rx="78" fill="url(#sheen)"/><rect x="16" y="16" width="480" height="480" rx="78" filter="url(#grain)" opacity="0.48"/>
    <path d="M150 104L221 91L258 177L229 420H145L150 104Z" fill="#f2ede3"/>
    <path d="M216 112C274 74 375 84 438 153L397 201C356 168 302 159 250 184L216 112Z" fill="#f2ede3"/>
    <path d="M264 255H417V321H237L264 255Z" fill="#f2ede3" opacity="0.82"/>
    <path d="M250 184L237 321H289" fill="#7b7a77" opacity="0.32"/>
    <circle cx="352" cy="166" r="44" fill="#ef3b31"/><circle cx="352" cy="166" r="16" fill="#101216"/><circle cx="344" cy="157" r="5" fill="#f2ede3" opacity="0.72"/>
    <path d="M104 448H409" stroke="#f2ede3" stroke-width="5"/><path d="M348 448H409" stroke="#ef3b31" stroke-width="5"/>
  </svg>