<svg xmlns="http://www.w3.org/2000/svg" width="512" height="512" viewBox="0 0 512 512"><defs>
  <linearGradient id="night" x1="48" y1="24" x2="469" y2="491" gradientUnits="userSpaceOnUse"><stop stop-color="#292b30"/><stop offset="0.48" stop-color="#121419"/><stop offset="1" stop-color="#07080b"/></linearGradient>
  <radialGradient id="sheen" cx="0" cy="0" r="1" gradientTransform="translate(194 101) rotate(51) scale(390)"><stop stop-color="#ffffff" stop-opacity="0.07"/><stop offset="0.62" stop-color="#ffffff" stop-opacity="0"/></radialGradient>
  <filter id="grain" x="0" y="0" width="100%" height="100%"><feTurbulence type="fractalNoise" baseFrequency="0.65" numOctaves="2" seed="29" result="n"/><feColorMatrix in="n" type="saturate" values="0" result="m"/><feComponentTransfer in="m"><feFuncA type="table" tableValues="0 0.038"/></feComponentTransfer></filter></defs>
    <rect x="16" y="16" width="480" height="480" rx="78" fill="url(#night)"/><rect x="16" y="16" width="480" height="480" rx="78" fill="url(#sheen)"/><rect x="16" y="16" width="480" height="480" rx="78" filter="url(#grain)" opacity="0.48"/>
    <path d="M181 94H225L249 184L219 418H165L181 94Z" fill="#f2ede3"/>
    <path d="M222 120C279 89 366 91 422 143" fill="none" stroke="#f2ede3" stroke-width="15" stroke-linecap="round"/>
    <path d="M218 418H359" stroke="#f2ede3" stroke-width="18"/>
    <path d="M249 184L219 418H273" fill="#6e7074" opacity="0.34"/>
    <circle cx="345" cy="164" r="43" fill="#ef3b31"/><circle cx="345" cy="164" r="15" fill="#101216"/><circle cx="337" cy="155" r="5" fill="#f2ede3" opacity="0.72"/>
    <path d="M105 448H407" stroke="#f2ede3" stroke-opacity="0.25" stroke-width="4"/>
  </svg>