<svg xmlns="http://www.w3.org/2000/svg" width="512" height="512" viewBox="0 0 512 512"><defs>
  <linearGradient id="night" x1="48" y1="24" x2="469" y2="491" gradientUnits="userSpaceOnUse"><stop stop-color="#292b30"/><stop offset="0.48" stop-color="#121419"/><stop offset="1" stop-color="#07080b"/></linearGradient>
  <radialGradient id="sheen" cx="0" cy="0" r="1" gradientTransform="translate(194 101) rotate(51) scale(390)"><stop stop-color="#ffffff" stop-opacity="0.07"/><stop offset="0.62" stop-color="#ffffff" stop-opacity="0"/></radialGradient>
  <filter id="grain" x="0" y="0" width="100%" height="100%"><feTurbulence type="fractalNoise" baseFrequency="0.65" numOctaves="2" seed="29" result="n"/><feColorMatrix in="n" type="saturate" values="0" result="m"/><feComponentTransfer in="m"><feFuncA type="table" tableValues="0 0.038"/></feComponentTransfer></filter></defs>
    <rect x="16" y="16" width="480" height="480" rx="78" fill="url(#night)"/><rect x="16" y="16" width="480" height="480" rx="78" fill="url(#sheen)"/><rect x="16" y="16" width="480" height="480" rx="78" filter="url(#grain)" opacity="0.48"/>
    <path d="M169 95H227L252 183L221 414H151L169 95Z" fill="#f2ede3"/>
    <path d="M199 137L227 182L204 369H178L199 137Z" fill="#101216" opacity="0.92"/>
    <path d="M221 121C280 88 365 91 418 141" fill="none" stroke="#f2ede3" stroke-width="18" stroke-linecap="round"/>
    <path d="M306 139C330 118 369 118 393 141C405 153 409 169 404 184" fill="none" stroke="#303238" stroke-width="17" stroke-linecap="round"/>
    <circle cx="349" cy="163" r="39" fill="#ef3b31"/><circle cx="349" cy="163" r="15" fill="#101216"/><circle cx="341" cy="154" r="5" fill="#f2ede3" opacity="0.72"/>
    <path d="M220 414H351" stroke="#f2ede3" stroke-width="20"/>
    <path d="M252 183L221 414H276" fill="#70716d" opacity="0.34"/>
    <path d="M106 446H342" stroke="#f2ede3" stroke-opacity="0.28" stroke-width="4"/><path d="M342 446H406" stroke="#ef3b31" stroke-width="4"/>
  </svg>